<?xml version="1.0" encoding="utf-8"?>
<!-- Generator: Adobe Illustrator 27.3.1, SVG Export Plug-In . SVG Version: 6.00 Build 0)  -->
<svg version="1.1" id="Layer_1" xmlns="http://www.w3.org/2000/svg" xmlns:xlink="http://www.w3.org/1999/xlink" x="0px" y="0px"
	 viewBox="0 0 800 800" style="enable-background:new 0 0 800 800;" xml:space="preserve">
<style type="text/css">
	.st0{fill:none;}
	.st1{fill:#7D61F1;}
</style>
<g id="页面-1">
	<g id="Editor" transform="translate(-624.000000, -144.000000)">
		<g id="quote_left_fill" transform="translate(624.000000, 144.000000)">
			<path id="MingCute" class="st0" d="M800,0v800H0V0H800z M419.8,775.3l-0.4,0.1l-2.4,1.2l-0.6,0.1l0,0l-0.5-0.1l-2.4-1.2
				c-0.3-0.1-0.6,0-0.8,0.2l-0.1,0.4l-0.6,14.2l0.2,0.7l0.4,0.4l3.5,2.5l0.5,0.1l0,0l0.4-0.1l3.5-2.5l0.4-0.5l0,0l0.1-0.6l-0.6-14.2
				C420.3,775.5,420,775.3,419.8,775.3L419.8,775.3z M428.6,771.5l-0.5,0.1l-6.2,3.1l-0.3,0.3l0,0l-0.1,0.4l0.6,14.3l0.2,0.4l0,0
				l0.3,0.2l6.7,3.1c0.4,0.1,0.8,0,0.9-0.3l0.1-0.5l-1.1-20.5C429.2,771.8,428.9,771.6,428.6,771.5L428.6,771.5z M404.8,771.6
				c-0.3-0.2-0.7-0.1-0.9,0.2l-0.2,0.5l-1.1,20.5c0,0.4,0.2,0.7,0.6,0.8l0.5,0l6.7-3.1l0.3-0.3l0,0l0.1-0.4l0.6-14.3l-0.1-0.4l0,0
				l-0.3-0.3L404.8,771.6z"/>
			<path id="形状结合" class="st1" d="M280,206.7c14.7-11,35.6-8.1,46.7,6.7c11,14.7,8.1,35.6-6.7,46.7
				c-52.1,39.1-82,77.1-99.1,110.3c9.3-2.4,19.1-3.7,29.1-3.7c64.4,0,116.7,52.2,116.7,116.7S314.4,600,250,600
				c-63.8,0-115.6-51.2-116.7-114.7c-3-28.8-2.6-71.4,16.9-120.5C170.2,314.6,209.1,259.9,280,206.7z M580,206.7
				c14.7-11,35.6-8.1,46.7,6.7c11,14.7,8.1,35.6-6.7,46.7c-52.1,39.1-82,77.1-99.1,110.3c9.3-2.4,19-3.7,29.1-3.7
				c64.4,0,116.7,52.2,116.7,116.7S614.4,600,550,600c-63.8,0-115.6-51.2-116.7-114.7c-3-28.8-2.6-71.4,16.9-120.5
				C470.2,314.6,509.1,259.9,580,206.7z"/>
		</g>
	</g>
</g>
</svg>
